<svg height="483pt" viewBox="-1 0 483 483.312" width="483pt" xmlns="http://www.w3.org/2000/svg"><path d="m216.15625 109.390625c-73.8125 12.476563-125.757812 79.429687-119.496094 154.03125 6.261719 74.597656 68.636719 131.957031 143.496094 131.957031s137.234375-57.359375 143.496094-131.957031c6.257812-74.601563-45.683594-141.554687-119.496094-154.03125-15.878906-2.773437-32.121094-2.773437-48 0zm136 141.921875c.011719 59.421875-46.386719 108.507812-105.714844 111.84375s-110.933594-40.242188-117.582031-99.292969c-6.648437-59.046875 33.976563-113.011719 92.5625-122.953125 6.183594-1.074218 12.453125-1.609375 18.734375-1.597656 6.195312-.003906 12.378906.53125 18.480469 1.597656 54.058593 8.832032 93.699219 55.625 93.519531 110.402344zm0 0" fill="#9bc9ff"/><path d="m258.636719 140.910156c-6.101563-1.066406-12.285157-1.601562-18.480469-1.597656-6.28125-.011719-12.550781.523438-18.734375 1.597656-57.429687 9.675782-97.859375 61.75-93.003906 119.78125 4.855469 58.035156 53.375 102.664063 111.609375 102.664063 58.238281 0 106.757812-44.628907 111.609375-102.664063 4.855469-58.03125-35.574219-110.105468-93-119.78125zm0 0" fill="#9bc9ff"/><g fill="#1e81ce"><path d="m56.15625 443.3125h16v16h-16zm0 0"/><path d="m88.15625 443.3125h16v16h-16zm0 0"/><path d="m120.15625 443.3125h16v16h-16zm0 0"/><path d="m120.15625 443.3125h16v16h-16zm0 0"/><path d="m152.15625 443.3125h16v16h-16zm0 0"/><path d="m184.15625 443.3125h16v16h-16zm0 0"/><path d="m216.15625 443.3125h16v16h-16zm0 0"/><path d="m248.15625 443.3125h16v16h-16zm0 0"/><path d="m280.15625 443.3125h16v16h-16zm0 0"/><path d="m312.15625 443.3125h16v16h-16zm0 0"/><path d="m344.15625 443.3125h16v16h-16zm0 0"/><path d="m376.15625 443.3125h16v16h-16zm0 0"/><path d="m408.15625 443.3125h16v16h-16zm0 0"/><path d="m240.15625 403.3125c77.703125.058594 142.917969-58.535156 151.152344-135.800781 8.230468-77.261719-43.179688-148.28125-119.152344-164.589844v-19.609375h51.3125l-83.3125-83.3125-83.3125 83.3125h51.3125v19.609375c-75.972656 16.308594-127.382812 87.328125-119.152344 164.589844 8.230469 77.265625 73.449219 135.859375 151.152344 135.800781zm-44.6875-336 44.6875-44.6875 44.6875 44.6875h-28.6875v32.863281c-.503906-.046875-1.007812 0-1.511719-.078125-4.289062-.417968-8.601562-.65625-12.921875-.699218-.519531 0-1.039062-.085938-1.597656-.085938-.5625 0-.96875.070312-1.457031.078125-4.375.042969-8.726563.277344-13.054688.707031-.488281.046875-.992187 0-1.488281.078125v-32.863281zm22.070312 49.960938c14.964844-2.609376 30.269532-2.609376 45.234376 0h.140624c69.707032 11.792968 118.753907 75.027343 112.835938 145.476562s-64.824219 124.617188-135.523438 124.617188c-70.695312 0-129.601562-54.167969-135.519531-124.617188s43.125-133.683594 112.832031-145.476562zm0 0"/><path d="m240.15625 371.3125c62.261719-.199219 114.03125-47.988281 119.199219-110.035156 5.171875-62.046875-37.972657-117.742188-99.34375-128.246094-13.203125-2.296875-26.707031-2.296875-39.910157 0-61.410156 10.511719-104.558593 66.265625-99.335937 128.34375 5.226563 62.082031 57.089844 109.839844 119.390625 109.9375zm-17.359375-222.480469c11.421875-2.011719 23.105469-2.011719 34.527344 0 53.328125 8.976563 90.878906 57.328125 86.375 111.21875-4.503907 53.890625-49.558594 95.339844-103.640625 95.339844-54.078125 0-99.132813-41.449219-103.636719-95.339844s33.046875-102.242187 86.375-111.21875zm0 0"/><path d="m240.15625 307.3125c-13.253906 0-24-10.746094-24-24 0-4.417969-3.582031-8-8-8s-8 3.582031-8 8c.023438 19 13.386719 35.371094 32 39.199219v8.800781c0 4.417969 3.582031 8 8 8s8-3.582031 8-8v-8.800781c20.140625-4.089844 33.902344-22.773438 31.835938-43.21875-2.0625-20.445313-19.285157-36-39.835938-35.980469-13.253906 0-24-10.746094-24-24s10.746094-24 24-24 24 10.746094 24 24c0 4.417969 3.582031 8 8 8s8-3.582031 8-8c-.023438-19-13.390625-35.371094-32-39.199219v-8.800781c0-4.417969-3.582031-8-8-8s-8 3.582031-8 8v8.800781c-20.140625 4.089844-33.902344 22.773438-31.839844 43.21875 2.066406 20.445313 19.289063 36 39.839844 35.980469 13.253906 0 24 10.746094 24 24s-10.746094 24-24 24zm0 0"/><path d="m472.15625 227.3125h-40c-13.253906 0-24 10.746094-24 24v168h-336v-168c0-13.253906-10.746094-24-24-24h-40c-4.417969 0-8 3.582031-8 8v32c0 4.417969 3.582031 8 8 8h16v184c0 13.253906 10.746094 24 24 24h384c13.253906 0 24-10.746094 24-24v-184h16c4.417969 0 8-3.582031 8-8v-32c0-4.417969-3.582031-8-8-8zm-8 32h-16c-4.417969 0-8 3.582031-8 8v192c0 4.417969-3.582031 8-8 8h-384c-4.417969 0-8-3.582031-8-8v-192c0-4.417969-3.582031-8-8-8h-16v-16h32c4.417969 0 8 3.582031 8 8v176c0 4.417969 3.582031 8 8 8h352c4.417969 0 8-3.582031 8-8v-176c0-4.417969 3.582031-8 8-8h32zm0 0"/></g></svg>